<?xml version="1.0"?>
<!--Icons from directory ""-->
<svg xmlns="http://www.w3.org/2000/svg" width="240" height="240" viewBox="0 0 240 240"><svg xmlns:rdf="http://www.w3.org/1999/02/22-rdf-syntax-ns#" xmlns:cc="http://creativecommons.org/ns#" xmlns:xlink="http://www.w3.org/1999/xlink" xmlns:dc="http://purl.org/dc/elements/1.1/" id="Telegram_logo" height="240" width="240" version="1.1" y="0"><defs id="Telegram_logo-defs6"><linearGradient id="Telegram_logo-linearGradient3873" y2="80" gradientUnits="userSpaceOnUse" x2="6.6667" y1="56.667" x1="16.667"><stop id="Telegram_logo-stop3823" stop-color="#37aee2" offset="0"/><stop id="Telegram_logo-stop3825" stop-color="#1e96c8" offset="1"/></linearGradient><linearGradient id="Telegram_logo-linearGradient3883" y2="160" gradientUnits="userSpaceOnUse" x2="160" y1="120" x1="135"><stop id="Telegram_logo-stop3879" stop-color="#eff7fc" offset="0"/><stop id="Telegram_logo-stop3881" stop-color="#fff" offset="1"/></linearGradient></defs><g><path id="Telegram_logo-path2995-1-0" d="m30 70a20 20 0 1 1 -40 0 20 20 0 1 1 40 0z" transform="matrix(6,0,0,6,60,-300)" fill="url(#Telegram_logo-linearGradient3873)"/><path id="Telegram_logo-path2993" d="m98 175c-3.8876 0-3.227-1.4679-4.5678-5.1695l-11.441-37.627 70.805-44.237 8.2627 2.161-6.8644 18.814z" fill="#c8daea"/><path id="Telegram_logo-path2989" d="m98 175c3 0 4.3299-1.3675 6-3 2.5784-2.5203 36-35 36-35l-20.472-4.9551-19 12-2.53 29.96z" fill="#a9c9dd"/><path id="Telegram_logo-path2991" d="m100.04 144.41 48.36 35.729c5.5185 3.0449 9.5014 1.4684 10.876-5.1235l19.685-92.763c2.0154-8.0802-3.0801-11.745-8.3594-9.3482l-115.59 44.571c-7.8901 3.1647-7.8441 7.5666-1.4382 9.528l29.663 9.2583 68.673-43.325c3.2419-1.9659 6.2173-0.90899 3.7752 1.2584z" fill="url(#Telegram_logo-linearGradient3883)"/></g></svg></svg>
